<svg xmlns="http://www.w3.org/2000/svg" width="192" height="192" viewBox="0 0 192 192" fill="none">
  <defs>
    <!-- Основной градиент -->
    <linearGradient id="gFill" x1="44" y1="40" x2="148" y2="152" gradientUnits="userSpaceOnUse">
      <stop offset="0" stop-color="#BFEF9A"></stop>
      <stop offset="0.55" stop-color="#8FE8D3"></stop>
      <stop offset="1" stop-color="#8ACDFF"></stop>
    </linearGradient>

    <!-- Градиент обводки -->
    <linearGradient id="gStroke" x1="44" y1="40" x2="148" y2="152" gradientUnits="userSpaceOnUse">
      <stop offset="0" stop-color="#7AD46B"></stop>
      <stop offset="0.55" stop-color="#4CC6B7"></stop>
      <stop offset="1" stop-color="#4C9DFF"></stop>
    </linearGradient>

    <!-- Блик -->
    <linearGradient id="gShine" x1="70" y1="56" x2="132" y2="118" gradientUnits="userSpaceOnUse">
      <stop offset="0" stop-color="#FFFFFF" stop-opacity="0.45"></stop>
      <stop offset="1" stop-color="#FFFFFF" stop-opacity="0"></stop>
    </linearGradient>
  </defs>

  <!-- Крест -->
  <path d="M80 34 H112 Q122 34 122 44 V70 H148 Q158 70 158 80 V112 Q158 122 148 122 H122 V148 Q122 158 112 158 H80 Q70 158 70 148 V122 H44 Q34 122 34 112 V80 Q34 70 44 70 H70 V44 Q70 34 80 34 Z" fill="url(#gFill)" stroke="url(#gStroke)" stroke-width="4" stroke-linejoin="round"></path>

  <!-- Внутренний контур -->
  <path d="M82 40 H110 Q116 40 116 46 V74 H146 Q152 74 152 80 V110 Q152 116 146 116 H116 V146 Q116 152 110 152 H82 Q76 152 76 146 V116 H46 Q40 116 40 110 V80 Q40 74 46 74 H76 V46 Q76 40 82 40 Z" fill="none" stroke="#FFFFFF" stroke-opacity="0.35" stroke-width="2" stroke-linejoin="round"></path>

  <!-- Блик-дуга -->
  <path d="M64 92 C70 64, 96 54, 126 54 C116 66, 96 82, 86 108 C80 124, 72 136, 64 144" fill="none" stroke="url(#gShine)" stroke-width="18" stroke-linecap="round" stroke-linejoin="round" opacity="0.9"></path>

  <!-- Звёздочки -->
  <path d="M120 54 L123 62 L131 65 L123 68 L120 76 L117 68 L109 65 L117 62 Z" fill="#FFFFFF" opacity="0.7"></path>
  <path d="M62 82 L64 88 L70 90 L64 92 L62 98 L60 92 L54 90 L60 88 Z" fill="#FFFFFF" opacity="0.55"></path>
</svg>
